<?xml version="1.0" standalone="no"?><!DOCTYPE svg PUBLIC "-//W3C//DTD SVG 1.1//EN" "http://www.w3.org/Graphics/SVG/1.1/DTD/svg11.dtd"><svg t="1572331903174" class="icon" viewBox="0 0 1024 1024" version="1.1" xmlns="http://www.w3.org/2000/svg" p-id="19768" xmlns:xlink="http://www.w3.org/1999/xlink" width="128" height="128"><defs><style type="text/css"></style></defs><path d="M887 755.75c7.5-15 15-26.25 22.5-41.25 3.75-3.75 3.75-7.5 3.75-11.25 3.75-11.25 11.25-22.5 15-33.75 3.75-3.75 3.75-7.5 3.75-15 3.75-11.25 7.5-22.5 11.25-30 0-3.75 3.75-11.25 3.75-15 3.75-11.25 3.75-22.5 7.5-33.75 0-3.75 3.75-11.25 3.75-15C962 545.75 962 527 962 512c0-247.5-202.5-450-450-450S62 264.5 62 512c0 15 0 33.75 3.75 48.75 0 3.75 0 11.25 3.75 15 0 11.25 3.75 22.5 3.75 33.75 0 3.75 3.75 11.25 3.75 15 3.75 11.25 7.5 22.5 11.25 30 0 3.75 3.75 7.5 3.75 15 3.75 11.25 7.5 22.5 15 33.75 0 3.75 3.75 7.5 3.75 11.25 7.5 15 15 26.25 22.5 41.25C212 879.5 350.75 962 508.25 962S804.5 879.5 887 755.75c-3.75 0-3.75 0 0 0z m-378.75-480c90 0 165 75 165 165s-75 165-165 165-165-75-165-165 75-165 165-165zM234.5 793.25c48.75-108.75 153.75-180 273.75-180s225 71.25 273.75 180c-71.25 67.5-168.75 112.5-273.75 112.5-105-3.75-202.5-45-273.75-112.5z" p-id="19769" fill="#d81e06"></path></svg>