<?xml version="1.0" standalone="no"?><!DOCTYPE svg PUBLIC "-//W3C//DTD SVG 1.1//EN" "http://www.w3.org/Graphics/SVG/1.1/DTD/svg11.dtd"><svg t="1573028618146" class="icon" viewBox="0 0 1024 1024" version="1.1" xmlns="http://www.w3.org/2000/svg" p-id="21759" xmlns:xlink="http://www.w3.org/1999/xlink" width="128" height="128"><defs><style type="text/css"></style></defs><path d="M503.25376 970.19008a458.112 458.112 0 0 1-323.93344-134.38464 458.07232 458.07232 0 0 1-133.9648-324.10624A458.09536 458.09536 0 0 1 503.25504 53.33888a458.09664 458.09664 0 0 1 457.9008 458.36032 458.07232 458.07232 0 0 1-133.9648 324.10624 458.1184 458.1184 0 0 1-323.93728 134.38464z m0-874.71104a415.93984 415.93984 0 0 0-294.06848 121.96992 415.968 415.968 0 0 0-121.6896 294.18496c0 229.9008 186.11968 416.21504 415.75936 416.21504a415.94368 415.94368 0 0 0 294.07104-121.96992 415.936 415.936 0 0 0 121.6896-294.18112C919.0144 281.7984 732.89472 95.47904 503.25376 95.47904z m0 0" p-id="21760" fill="#ffffff"></path><path d="M525.60512 743.43552c-23.7248 23.79008-32.96512 9.43488-42.33984 0l-183.5648-183.76448c-31.38944-31.45472 5.9648-58.1312 31.00032-33.0944l152.56448 160.29952V291.04c0-45.08928 42.33984-40.89472 42.33984 0v395.83616L678.1696 526.57536c24.38016-24.38016 68.29056-4.25984 31.00032 33.0944L525.6704 743.43552h-0.06528z m0 0" p-id="21761" fill="#ffffff"></path></svg>