<?xml version="1.0" standalone="no"?><!DOCTYPE svg PUBLIC "-//W3C//DTD SVG 1.1//EN" "http://www.w3.org/Graphics/SVG/1.1/DTD/svg11.dtd"><svg t="1572247273129" class="icon" viewBox="0 0 1183 1024" version="1.1" xmlns="http://www.w3.org/2000/svg" p-id="4977" xmlns:xlink="http://www.w3.org/1999/xlink" width="147.875" height="128"><defs><style type="text/css"></style></defs><path d="M775.964444 841.955556c-122.88 0-223.004444-97.848889-223.004444-218.453334s100.124444-218.453333 223.004444-218.453333 223.004444 97.848889 223.004445 218.453333-100.124444 218.453333-223.004445 218.453334M407.324444 512H184.32c-20.48 0-36.408889-15.928889-36.408889-36.408889s15.928889-36.408889 36.408889-36.408889h223.004444c20.48 0 36.408889 15.928889 36.408889 36.408889s-15.928889 36.408889-36.408889 36.408889m0 145.635556H184.32c-20.48 0-36.408889-15.928889-36.408889-36.408889s15.928889-36.408889 36.408889-36.408889h223.004444c20.48 0 36.408889 15.928889 36.408889 36.408889s-15.928889 36.408889-36.408889 36.408889m0 147.911111H184.32c-20.48 0-36.408889-15.928889-36.408889-36.408889s15.928889-36.408889 36.408889-36.408889h223.004444c20.48 0 36.408889 15.928889 36.408889 36.408889s-15.928889 36.408889-36.408889 36.408889M1035.377778 220.728889h-77.368889L566.613333 4.551111c-15.928889-9.102222-38.684444-4.551111-50.062222 13.653333-11.377778 15.928889-4.551111 38.684444 13.653333 47.786667l279.893334 152.462222H147.911111c-81.92 2.275556-147.911111 68.266667-147.911111 147.911111v512C0 958.008889 65.991111 1024 147.911111 1024h887.466667c81.92 0 147.911111-65.991111 147.911111-145.635556V366.364444c0-79.644444-65.991111-145.635556-147.911111-145.635555" p-id="4978" fill="#ffffff"></path></svg>