<?xml version="1.0" standalone="no"?><!DOCTYPE svg PUBLIC "-//W3C//DTD SVG 1.1//EN" "http://www.w3.org/Graphics/SVG/1.1/DTD/svg11.dtd"><svg t="1572247529416" class="icon" viewBox="0 0 1024 1024" version="1.1" xmlns="http://www.w3.org/2000/svg" p-id="13500" xmlns:xlink="http://www.w3.org/1999/xlink" width="128" height="128"><defs><style type="text/css"></style></defs><path d="M352 256.153018C352 167.692149 423.623864 96 512 96 600.387282 96 672 167.655547 672 256.153018L672 543.846982C672 632.307851 600.376136 704 512 704 423.612718 704 352 632.344453 352 543.846982L352 256.153018 352 256.153018ZM496 831.560386C363.488878 824.26308 252.772282 726.87981 228.766195 596.442928 227.166746 587.752331 232.915258 579.4106 241.605854 577.81115 250.296451 576.211701 258.638182 581.960211 260.237634 590.65081 282.421448 711.186392 387.991035 800 512 800 636.101938 800 741.726213 711.055267 763.807982 590.402267 765.398814 581.71009 773.734842 575.95331 782.427021 577.544142 791.1192 579.134974 796.875979 587.471002 795.285147 596.163181 771.388762 726.731101 660.61361 824.257578 528 831.560395L528 912 528 928 496 928 496 912 496 831.560386 496 831.560386ZM320 256.153018 320 543.846982C320 650.013283 405.935322 736 512 736 618.056078 736 704 649.974141 704 543.846982L704 256.153018C704 149.986717 618.064678 64 512 64 405.943922 64 320 150.025859 320 256.153018ZM432 960 592 960C600.836555 960 608 952.836555 608 944 608 935.163445 600.836555 928 592 928L432 928C423.163445 928 416 935.163445 416 944 416 952.836555 423.163445 960 432 960Z" p-id="13501" fill="#ffffff"></path></svg>