<?xml version="1.0" standalone="no"?><!DOCTYPE svg PUBLIC "-//W3C//DTD SVG 1.1//EN" "http://www.w3.org/Graphics/SVG/1.1/DTD/svg11.dtd"><svg t="1573028439576" class="icon" viewBox="0 0 1024 1024" version="1.1" xmlns="http://www.w3.org/2000/svg" p-id="20982" xmlns:xlink="http://www.w3.org/1999/xlink" width="128" height="128"><defs><style type="text/css"></style></defs><path d="M938.146657 323.780221c-22.477944-53.144384-54.653761-100.871385-95.633081-141.850705-40.97932-40.978297-88.704275-73.155137-141.850705-95.633081-55.031361-23.277146-113.478518-35.078936-173.716461-35.078936-60.238966 0-118.686123 11.80179-173.717483 35.078936-53.144384 22.478967-100.871385 54.653761-141.850705 95.633081-40.978297 40.97932-73.155137 88.705298-95.633081 141.850705-23.277146 55.031361-35.078936 113.478518-35.078937 173.717484s11.80179 118.686123 35.078937 173.717483c22.478967 53.144384 54.654784 100.871385 95.633081 141.850705a451.187983 451.187983 0 0 0 36.916794 33.044604c31.906687 25.570375 67.033719 46.558385 104.933911 62.588477 55.031361 23.277146 113.478518 35.078936 173.717483 35.078937 60.237943 0 118.686123-11.80179 173.716461-35.078937a443.869297 443.869297 0 0 0 104.932887-62.588477 451.383434 451.383434 0 0 0 36.917818-33.045627c40.97932-40.978297 73.155137-88.704275 95.633081-141.849682 23.277146-55.031361 35.078936-113.478518 35.078936-173.717483-0.001023-60.238966-11.80179-118.686123-35.078936-173.717484z m-34.029025 333.041142c-20.615527 48.741098-50.132794 92.51916-87.73111 130.116453-22.750143 22.751167-47.777143 42.521442-74.78424 59.172681a408.759661 408.759661 0 0 1-55.332213 28.558429c-50.452065 21.339004-104.056937 32.160467-159.324682 32.160468s-108.872616-10.821463-159.324682-32.160468a408.807756 408.807756 0 0 1-55.331189-28.558429c-27.006074-16.651238-52.033074-36.421514-74.784241-59.172681-37.598316-37.597293-67.11456-81.375356-87.729063-130.116453-21.339004-50.452065-32.160467-104.055914-32.160467-159.324682 0-55.267744 10.82044-108.872616 32.160467-159.324682 20.614503-48.740074 50.130747-92.517113 87.729063-130.115429 37.597293-37.598316 81.375356-67.115584 130.116453-87.730087 50.453089-21.339004 104.056937-32.159444 159.324682-32.159444s108.872616 10.819416 159.324682 32.159444c48.741098 20.614503 92.51916 50.130747 130.116453 87.730087 37.598316 37.597293 67.115584 81.376379 87.731111 130.115429 21.339004 50.454112 32.159444 104.057961 32.159443 159.324682-0.001023 55.268768-10.821463 108.872616-32.160467 159.324682z" p-id="20983" fill="#ffffff"></path><path d="M328.36054 515.992941m-43.459815 0a43.459814 43.459814 0 1 0 86.919629 0 43.459814 43.459814 0 1 0-86.919629 0Z" p-id="20984" fill="#ffffff"></path><path d="M526.945387 515.992941m-43.459814 0a43.459814 43.459814 0 1 0 86.919628 0 43.459814 43.459814 0 1 0-86.919628 0Z" p-id="20985" fill="#ffffff"></path><path d="M725.531258 515.992941m-43.459814 0a43.459814 43.459814 0 1 0 86.919628 0 43.459814 43.459814 0 1 0-86.919628 0Z" p-id="20986" fill="#ffffff"></path></svg>