<?xml version="1.0" standalone="no"?><!DOCTYPE svg PUBLIC "-//W3C//DTD SVG 1.1//EN" "http://www.w3.org/Graphics/SVG/1.1/DTD/svg11.dtd"><svg t="1573029001949" class="icon" viewBox="0 0 1024 1024" version="1.1" xmlns="http://www.w3.org/2000/svg" p-id="25299" xmlns:xlink="http://www.w3.org/1999/xlink" width="128" height="128"><defs><style type="text/css"></style></defs><path d="M896 921.6L896 96C896 78.32689001 881.673112 64 864 64 846.326888 64 832 78.32689 832 96.00000001L832 921.59999999C832 939.27311199 846.326888 953.6 864 953.6 881.673112 953.6 896 939.273112 896 921.6L896 921.6Z" p-id="25300" fill="#ffffff"></path><path d="M249.971862 880.205281L249.971862 880.205281 654.324433 549.115296C681.706549 526.694406 681.759491 490.229328 654.324433 467.765088L249.971862 136.675104C222.589747 114.254214 200.296298 124.671949 200.296298 160.04058899L200.296298 856.839795C200.296298 892.486135 222.536806 902.669521 249.971862 880.205281L249.971862 880.205281ZM290.517862 929.723176L290.517862 929.723176C221.398042 986.319529 136.29629799 946.619538 136.296298 856.839795L136.296298 160.040589C136.296298 70.558656 221.43677801 30.592573 290.517862 87.15721L694.870433 418.247194C753.56997 466.311261 753.532094 550.600138 694.870433 598.63319L290.517862 929.723176Z" p-id="25301" fill="#ffffff"></path></svg>