<?xml version="1.0" standalone="no"?><!DOCTYPE svg PUBLIC "-//W3C//DTD SVG 1.1//EN" "http://www.w3.org/Graphics/SVG/1.1/DTD/svg11.dtd"><svg t="1572418183822" class="icon" viewBox="0 0 1024 1024" version="1.1" xmlns="http://www.w3.org/2000/svg" p-id="20756" xmlns:xlink="http://www.w3.org/1999/xlink" width="128" height="128"><defs><style type="text/css"></style></defs><path d="M512 971.264c-122.88 0-238.08-47.616-324.608-133.632-86.528-86.528-133.632-201.728-133.632-324.608s47.616-238.08 133.632-324.608C273.92 102.4 389.12 54.784 512 54.784s238.08 47.616 324.608 133.632c86.528 86.528 133.632 201.728 133.632 324.608s-47.616 238.08-133.632 324.608-201.728 133.632-324.608 133.632z m0-875.52c-229.888 0-417.28 187.392-417.28 417.28s187.392 417.28 417.28 417.28 417.28-187.392 417.28-417.28c0-230.4-187.392-417.28-417.28-417.28z" p-id="20757" fill="#2c2c2c"></path><path d="M444.416 308.224l248.32 170.496c23.552 16.384 23.552 51.712 0 67.584L444.416 716.8c-27.136 18.944-64.512-1.024-64.512-33.792V342.016c0-32.768 37.376-52.736 64.512-33.792z" p-id="20758" fill="#2c2c2c"></path></svg>