<?xml version="1.0" standalone="no"?><!DOCTYPE svg PUBLIC "-//W3C//DTD SVG 1.1//EN" "http://www.w3.org/Graphics/SVG/1.1/DTD/svg11.dtd"><svg t="1573028996425" class="icon" viewBox="0 0 1024 1024" version="1.1" xmlns="http://www.w3.org/2000/svg" p-id="25123" xmlns:xlink="http://www.w3.org/1999/xlink" width="128" height="128"><defs><style type="text/css"></style></defs><path d="M128 102.4 128 928C128 945.67311 142.326888 960 160 960 177.673112 960 192 945.67311 192 928L192 102.4C192 84.726888 177.673112 70.4 160 70.4 142.326888 70.4 128 84.726888 128 102.4L128 102.4Z" p-id="25124" fill="#ffffff"></path><path d="M774.028138 143.794719 774.028138 143.794719 369.675567 474.884704C342.293451 497.305594 342.240509 533.770672 369.675567 556.234912L774.028138 887.324896C801.410253 909.745786 823.703702 899.328051 823.703702 863.959411L823.703702 167.160205C823.703702 131.513865 801.463194 121.330479 774.028138 143.794719L774.028138 143.794719ZM733.482138 94.276824 733.482138 94.276824C802.601958 37.680471 887.703702 77.380462 887.703702 167.160205L887.703702 863.959411C887.703702 953.441344 802.563222 993.407427 733.482138 936.84279L329.129567 605.752806C270.43003 557.688739 270.467906 473.399862 329.129567 425.36681L733.482138 94.276824Z" p-id="25125" fill="#ffffff"></path></svg>