<?xml version="1.0" standalone="no"?><!DOCTYPE svg PUBLIC "-//W3C//DTD SVG 1.1//EN" "http://www.w3.org/Graphics/SVG/1.1/DTD/svg11.dtd"><svg t="1572246369375" class="icon" viewBox="0 0 1024 1024" version="1.1" xmlns="http://www.w3.org/2000/svg" p-id="926" xmlns:xlink="http://www.w3.org/1999/xlink" width="128" height="128"><defs><style type="text/css"></style></defs><path d="M512 960C264.576 960 64 759.424 64 512S264.576 64 512 64s448 200.576 448 448-200.576 448-448 448z m144.064-382.464l57.12-33.376c30.432-17.792 30.4-46.592 0-64.352l-57.12-33.376v55.712l16.864 9.856-16.832 9.856v55.68zM592 615.008v-55.712L432.032 652.8v-281.568l159.968 93.504v-55.712l-152.96-89.376c-30.432-17.824-55.04-3.392-55.04 32.128v320.416c0 35.584 24.64 49.952 55.04 32.16l152.96-89.344z" fill="#ffffff" p-id="927"></path></svg>