<?xml version="1.0" standalone="no"?><!DOCTYPE svg PUBLIC "-//W3C//DTD SVG 1.1//EN" "http://www.w3.org/Graphics/SVG/1.1/DTD/svg11.dtd"><svg t="1573028810783" class="icon" viewBox="0 0 1024 1024" version="1.1" xmlns="http://www.w3.org/2000/svg" p-id="24340" xmlns:xlink="http://www.w3.org/1999/xlink" width="128" height="128"><defs><style type="text/css"></style></defs><path d="M64.816215 750.578724" p-id="24341" fill="#ffffff"></path><path d="M516.582365 507.160785c28.27702 0 51.278897-23.001877 51.278897-51.278897 0-28.268834-23.001877-51.271734-51.278897-51.271734-28.261671 0-51.263547 23.001877-51.263547 51.271734C465.318818 484.158908 488.320695 507.160785 516.582365 507.160785z" p-id="24342" fill="#ffffff"></path><path d="M287.73733 404.611178c-28.27702 0-51.278897 23.001877-51.278897 51.271734 0 28.27702 23.001877 51.278897 51.278897 51.278897 28.261671 0 51.263547-23.001877 51.263547-51.278897C339.000877 427.613054 315.999001 404.611178 287.73733 404.611178z" p-id="24343" fill="#ffffff"></path><path d="M745.459123 507.160785c28.261671 0 51.263547-23.001877 51.263547-51.278897 0-28.268834-23.001877-51.271734-51.263547-51.271734-28.27702 0-51.294247 23.001877-51.294247 51.271734C694.163853 484.158908 717.182103 507.160785 745.459123 507.160785z" p-id="24344" fill="#ffffff"></path><path d="M516.582365 850.428849c249.109568 0 451.7815-176.99411 451.7815-394.546961S765.691933 61.343113 516.582365 61.343113 64.816215 238.329037 64.816215 455.881888c0 119.960139 61.642942 232.04696 169.119769 307.519886l2.521426 1.778506 0 195.068767L429.833629 842.918805l2.180666 0.356111C460.771245 848.023056 489.233484 850.428849 516.582365 850.428849zM420.939051 794.950304l-141.80261 85.248569 1.902326-139.961682c-107.074667-65.579601-170.883949-171.641195-170.883949-284.355303 0-192.555527 182.315302-349.208357 406.426523-349.208357s406.442896 156.652829 406.442896 349.208357S740.694609 805.097408 516.582365 805.097408C485.397109 805.097408 453.222315 801.686728 420.939051 794.950304z" p-id="24345" fill="#ffffff"></path></svg>