<?xml version="1.0" standalone="no"?><!DOCTYPE svg PUBLIC "-//W3C//DTD SVG 1.1//EN" "http://www.w3.org/Graphics/SVG/1.1/DTD/svg11.dtd"><svg t="1573433502935" class="icon" viewBox="0 0 1024 1024" version="1.1" xmlns="http://www.w3.org/2000/svg" p-id="2040" xmlns:xlink="http://www.w3.org/1999/xlink" width="128" height="128"><defs><style type="text/css"></style></defs><path d="M512 995.555556C244.622222 995.555556 28.444444 779.377778 28.444444 512S244.622222 28.444444 512 28.444444s483.555556 216.177778 483.555556 483.555556-216.177778 483.555556-483.555556 483.555556z m0-910.222223C278.755556 85.333333 85.333333 278.755556 85.333333 512s193.422222 426.666667 426.666667 426.666667 426.666667-193.422222 426.666667-426.666667S745.244444 85.333333 512 85.333333z" p-id="2041" fill="#ffffff"></path><path d="M466.488889 637.155556L290.133333 455.111111c-11.377778-11.377778-34.133333-11.377778-39.822222 0-11.377778 11.377778-11.377778 28.444444 0 39.822222l199.111111 199.111111c5.688889 5.688889 11.377778 5.688889 22.755556 5.688889s17.066667 0 22.755555-5.688889l324.266667-324.266666c11.377778-11.377778 11.377778-28.444444 0-39.822222-11.377778-11.377778-28.444444-11.377778-39.822222 0l-312.888889 307.2z" p-id="2042" fill="#ffffff"></path></svg>