<?xml version="1.0" standalone="no"?><!DOCTYPE svg PUBLIC "-//W3C//DTD SVG 1.1//EN" "http://www.w3.org/Graphics/SVG/1.1/DTD/svg11.dtd"><svg t="1573020489177" class="icon" viewBox="0 0 1024 1024" version="1.1" xmlns="http://www.w3.org/2000/svg" p-id="3390" xmlns:xlink="http://www.w3.org/1999/xlink" width="128" height="128"><defs><style type="text/css"></style></defs><path d="M787.394722 710.987007c-43.340087 0-82.127486 20.103874-107.794052 51.604308L368.019283 563.334155c7.982812-17.841344 12.431124-37.641295 12.431124-58.476833 0-21.561062-4.76963-42.009789-13.282514-60.33004l315.683822-185.847755c25.632797 29.278837 62.992683 47.762817 104.543008 47.762817 77.101006 0 139.840932-63.666018 139.840932-141.906987 0-78.265528-62.74095-141.918243-139.840932-141.918243-77.127611 0-139.841955 63.652715-139.841955 141.918243 0 21.808702 4.878101 42.481534 13.576203 60.962443L345.613994 411.237085c-25.647123-29.589922-63.21474-48.296983-105.028055-48.296983-77.102029 0-139.818419 63.666018-139.818419 141.918243 0 78.241992 62.71639 141.906987 139.818419 141.906987 42.555212 0 80.713276-19.377326 106.381889-49.880037l312.119647 199.609177c-7.413853 17.303085-11.534707 36.382629-11.534707 56.42408 0 78.240969 62.714344 141.893684 139.841955 141.893684 77.101006 0 139.840932-63.652715 139.840932-141.893684C927.235654 774.654049 864.495728 710.987007 787.394722 710.987007zM787.394722 62.390979c55.450916 0 100.624768 45.814442 100.624768 102.145401 0 56.307424-45.173852 102.145401-100.624768 102.145401-55.501058 0-100.626815-45.837978-100.626815-102.145401C686.767907 108.206444 731.893664 62.390979 787.394722 62.390979zM240.585939 606.990444c-55.499012 0-100.626815-45.813419-100.626815-102.133122 0-56.31868 45.127803-102.144378 100.626815-102.144378 32.521694 0 61.492516 15.740496 79.911004 40.102347 0.436952 1.715061 1.088798 3.402493 2.00875 5.01113 1.3743 2.402723 3.171226 4.403287 5.237281 5.962805 8.590656 15.032368 13.515828 32.477692 13.515828 51.068096 0 19.150152-5.227048 37.08257-14.302751 52.414767-0.588401 0.704035-1.150196 1.438769-1.648546 2.242064-0.471744 0.76134-0.86674 1.547239-1.225921 2.343371C305.974182 589.066213 275.300578 606.990444 240.585939 606.990444zM787.394722 955.039395c-55.501058 0-100.626815-45.814442-100.626815-102.121865 0-17.882276 4.552689-34.701336 12.535501-49.336662 0.937348-0.978281 1.791809-2.066055 2.536776-3.266393 0.837064-1.346671 1.473561-2.761903 1.958608-4.207835 18.075681-27.326369 48.794309-45.345768 83.594907-45.345768 55.450916 0 100.624768 45.826721 100.624768 102.157681C888.019491 909.224953 842.845639 955.039395 787.394722 955.039395z" p-id="3391" fill="#ffffff"></path></svg>