<?xml version="1.0" standalone="no"?><!DOCTYPE svg PUBLIC "-//W3C//DTD SVG 1.1//EN" "http://www.w3.org/Graphics/SVG/1.1/DTD/svg11.dtd"><svg t="1572246394965" class="icon" viewBox="0 0 1024 1024" version="1.1" xmlns="http://www.w3.org/2000/svg" p-id="1670" xmlns:xlink="http://www.w3.org/1999/xlink" width="128" height="128"><defs><style type="text/css"></style></defs><path d="M317.75614489 146.36450871h388.48771022c94.65388852 0 171.39163616 76.73774912 171.39163618 171.39163618v388.48771022c0 94.65388852-76.73774912 171.39163616-171.39163618 171.39163618H317.75614489c-94.65388852 0-171.39163616-76.73774912-171.39163618-171.39163618V317.75614489c0-94.65388852 76.73774912-171.39163616 171.39163618-171.39163618z m-5.71305474 171.39163618a28.56527221 28.56527221 0 1 0 0 57.13054588h239.94829152a28.56527221 28.56527221 0 1 0 0-57.13054588h-239.94829152z m0 148.53941869a28.56527221 28.56527221 0 1 0 0 57.13054589h194.24385512a28.56527221 28.56527221 0 1 0 0-57.13054589h-194.24385512z m0 148.53941871a28.56527221 28.56527221 0 1 0 0 57.13054589h125.68720124a28.56527221 28.56527221 0 1 0 0-57.13054589h-125.68720124zM683.39163616 352.03447182l58.04463453 67.71112271A14.96820257 14.96820257 0 0 0 763.37440099 420.59112719a18.91021076 18.91021076 0 0 0 1.91958527-24.49757733L683.39163616 283.47781796h-34.27832693v291.36578265a85.69581808 85.69581808 0 1 0 34.0955095 74.26970862H683.39163616V352.03447182z" p-id="1671" fill="#ffffff"></path></svg>