<?xml version="1.0" standalone="no"?><!DOCTYPE svg PUBLIC "-//W3C//DTD SVG 1.1//EN" "http://www.w3.org/Graphics/SVG/1.1/DTD/svg11.dtd"><svg t="1571984722846" class="icon" viewBox="0 0 1024 1024" version="1.1" xmlns="http://www.w3.org/2000/svg" p-id="8544" xmlns:xlink="http://www.w3.org/1999/xlink" width="128" height="128"><defs><style type="text/css"></style></defs><path d="M793.6 972.8H230.4c-113.1 0-204.8-91.7-204.8-204.8V256c0-113.1 91.7-204.8 204.8-204.8h563.2c113.1 0 204.8 91.7 204.8 204.8v512c0 113.1-91.7 204.8-204.8 204.8z m153.6-686.08c0-101.786-82.534-184.32-184.32-184.32H261.12c-101.786 0-184.32 82.534-184.32 184.32v450.56c0 101.786 82.534 184.32 184.32 184.32h501.76c101.786 0 184.32-82.534 184.32-184.32V286.72zM384 308.224L691.2 512 384 715.776V308.224z" p-id="8545" fill="#d81e06"></path></svg>